<svg xmlns="http://www.w3.org/2000/svg" viewBox="0 0 64 64"><circle cx="32" cy="32" r="30.4" fill="#ff060a"/><path d="M54.9 28c-8.2 10-16.3 19.9-24.5 29.9-5.9-14.8-11.7-29.5-17.6-44.2h.2c4.3.8 8.5 1.6 12.8 2.4 3.9.7 7.7 1.4 11.6 2.1 2.9.5 5.7 1.1 8.6 1.6.1 0 .2.1.3.2 2.3 2.2 4.6 4.4 7 6.6.4.4.9.8 1.3 1.2.1 0 .2.1.3.2zM30.3 51.3c.2-.9.3-1.7.4-2.6.2-1.9.5-3.8.7-5.8.2-1.9.5-3.8.7-5.8.2-1.8.4-3.6.7-5.4 0-.2 0-.3-.2-.4-5-4.1-9.9-8.2-14.9-12.3l-.2-.2c4.2 10.9 8.5 21.7 12.8 32.5zm20.1-21.5h-.3c-2.9.5-5.8 1.1-8.7 1.6-2.1.4-4.2.8-6.2 1.1-.2 0-.3.1-.3.3-.3 2.8-.7 5.5-1 8.3-.4 3.1-.7 6.1-1.1 9.2 0 .3-.1.7-.1 1h.1c5.8-7.2 11.7-14.3 17.6-21.5zm-16.6-.5c3.1-2.6 6.2-5.2 9.4-7.8-8.1-1.5-16-2.9-24-4.4v.1c4.8 4 9.7 8.1 14.6 12.1zm11.9-6.9c-2.9 2.5-5.9 4.9-8.8 7.3v.1c4.6-.8 9.2-1.7 13.9-2.5-1.7-1.6-3.4-3.2-5.1-4.9z" fill="#fff"/></svg>